<svg width="202" height="155" viewBox="0 0 202 155" fill="none" xmlns="http://www.w3.org/2000/svg">
<circle cx="100" cy="69" r="69" fill="#FFF6F8"/>
<path d="M15.3839 61.9656C14.5448 58.7423 10.7686 59.0877 10.7686 59.0877L10.8735 61.2749C13.0762 60.8144 14.4399 63.6923 14.4399 63.6923L15.3839 61.9656Z" fill="#F5A256"/>
<path d="M166.353 95.0523C165.379 91.6464 161 92.0114 161 92.0114L161.122 94.3225C163.676 93.8359 165.258 96.8769 165.258 96.8769L166.353 95.0523Z" fill="#E0E0E0"/>
<path d="M201.885 33.4965C200.451 28.4792 194 29.0167 194 29.0167L194.179 32.4213C197.943 31.7046 200.272 36.1843 200.272 36.1843L201.885 33.4965Z" fill="#F5567B"/>
<path d="M168.41 9.20604C168.41 10.4666 167.465 11.4121 166.205 11.4121C164.945 11.4121 164 10.4666 164 9.20604C164 7.94545 164.945 7 166.205 7C167.465 7 168.41 7.94545 168.41 9.20604Z" fill="#E0E0E0"/>
<path d="M178.41 62.206C178.41 63.4666 177.465 64.4121 176.205 64.4121C174.945 64.4121 174 63.4666 174 62.206C174 60.9454 174.945 60 176.205 60C177.465 60 178.41 60.9454 178.41 62.206Z" fill="#E0E0E0"/>
<path d="M5.4104 99.206C5.4104 100.467 4.46532 101.412 3.2052 101.412C1.94508 101.412 1 100.467 1 99.206C1 97.9454 1.94508 97 3.2052 97C4.46532 97 5.4104 97.9454 5.4104 99.206Z" fill="#DA204C"/>
<path d="M5.95157 29.7461C5.95157 31.4472 4.67624 32.7231 2.97579 32.7231C1.27533 32.7231 0 31.4472 0 29.7461C0 28.045 1.27533 26.7692 2.97579 26.7692C4.67624 26.7692 5.95157 28.045 5.95157 29.7461Z" fill="#F5567B"/>
<path d="M34.8851 4.49648C33.4514 -0.520827 27 0.0167409 27 0.0167409L27.1792 3.42133C30.9425 2.70457 33.2722 7.18432 33.2722 7.18432L34.8851 4.49648Z" fill="#E0E0E0"/>
<g filter="url(#filter0_d)">
<path d="M57.0215 25.1233H151.253L151.313 25.0344C155.406 20.1128 155.406 12.9973 151.313 8.10542L151.253 8.01648H144.669H57.0215L57.4961 8.52049C61.8562 13.2345 61.6782 20.5575 57.1105 25.0344L57.0215 25.1233Z" fill="#F5567B"/>
<path d="M132.477 134.562H46.4316V17.1561C46.4316 11.6712 50.8807 7.22401 56.368 7.22401H140.545C140.545 7.22401 149.295 6.71999 149.117 7.22401C142.977 7.3426 143.303 24.3309 143.303 24.3309V123.711C143.303 129.729 138.439 134.562 132.477 134.562Z" fill="#FCF7FD"/>
<path d="M132.361 134.562C128.535 134.562 38.1292 134.562 38.1292 134.562L38.0699 134.473C33.9767 129.551 33.9767 122.436 38.0699 117.544L38.1292 117.455H132.361L131.887 117.959C127.526 122.643 126.785 130.678 132.361 134.562C132.361 134.562 136.217 134.562 132.361 134.562Z" fill="#F5567B"/>
<circle cx="96.5904" cy="24.1667" r="11.7456" fill="#F5567B"/>
<path d="M134.054 47.9929H59.2197V49.9793H134.054V47.9929Z" fill="#EEDAF3"/>
<path d="M134.054 57.8065H59.2197V59.7929H134.054V57.8065Z" fill="#EEDAF3"/>
<path d="M134.054 67.6496H59.2197V69.636H134.054V67.6496Z" fill="#EEDAF3"/>
<path d="M134.054 77.4631H59.2197V79.4495H134.054V77.4631Z" fill="#EEDAF3"/>
<path d="M134.054 87.2765H59.2197V89.2629H134.054V87.2765Z" fill="#EEDAF3"/>
<path d="M134.054 106.933H59.2197V108.919H134.054V106.933Z" fill="#EEDAF3"/>
<path d="M134.054 97.0899H59.2197V99.0763H134.054V97.0899Z" fill="#EEDAF3"/>
</g>
<defs>
<filter id="filter0_d" x="23" y="3" width="143.383" height="151.562" filterUnits="userSpaceOnUse" color-interpolation-filters="sRGB">
<feFlood flood-opacity="0" result="BackgroundImageFix"/>
<feColorMatrix in="SourceAlpha" type="matrix" values="0 0 0 0 0 0 0 0 0 0 0 0 0 0 0 0 0 0 127 0"/>
<feOffset dy="8"/>
<feGaussianBlur stdDeviation="6"/>
<feColorMatrix type="matrix" values="0 0 0 0 0.206307 0 0 0 0 0.0658854 0 0 0 0 0.229167 0 0 0 0.16 0"/>
<feBlend mode="normal" in2="BackgroundImageFix" result="effect1_dropShadow"/>
<feBlend mode="normal" in="SourceGraphic" in2="effect1_dropShadow" result="shape"/>
</filter>
</defs>
</svg>
